<svg width="220" height="56" viewBox="0 0 220 56" fill="none" xmlns="http://www.w3.org/2000/svg" role="img" aria-labelledby="title desc">
  <title id="title">LOOREBEE Digital Marketing</title>
  <desc id="desc">Logotipo tipográfico premium da LOOREBEE.</desc>
  <rect width="56" height="56" rx="18" fill="url(#g)"/>
  <path d="M18 38V17h6.2v15.7H38V38H18Z" fill="#111"/>
  <path d="M72 16h7v24h-7V16Zm11.2 24V16h5.8l11 13.4V16h6.8v24H101L90 26.6V40h-6.8Zm28.2 0V16H132v5.4h-13.7v3.9h12.4v5h-12.4v4.3h14.1V40h-21Zm25.6 0V16h11.5c2.9 0 5.2.7 6.8 2.1 1.6 1.4 2.4 3.2 2.4 5.5 0 1.4-.3 2.6-1 3.6-.7 1-1.6 1.8-2.8 2.3 1.5.5 2.6 1.2 3.4 2.2.8 1 1.2 2.2 1.2 3.7 0 2.5-.9 4.4-2.7 5.8-1.8 1.4-4.2 2.1-7.3 2.1H137Zm6.8-14.6h3.6c1.1 0 2-.2 2.6-.7.6-.5.9-1.1.9-2s-.3-1.5-.9-2c-.6-.5-1.5-.7-2.6-.7h-3.6v5.4Zm0 9.5h4.5c1.2 0 2.1-.2 2.7-.7.6-.5.9-1.2.9-2.1s-.3-1.6-1-2.1c-.7-.5-1.6-.8-2.8-.8h-4.2v5.7Zm19.5 3.7V16H184v5.4h-13.7v3.9h12.4v5h-12.4v4.3h14.1V40h-21Zm25.6 0V16h20.6v5.4h-13.7v3.9h12.4v5h-12.4v4.3H210V40h-21Z" fill="#F5F5F5"/>
  <defs><linearGradient id="g" x1="8" y1="4" x2="50" y2="52" gradientUnits="userSpaceOnUse"><stop stop-color="#FFD000"/><stop offset="1" stop-color="#FF8A00"/></linearGradient></defs>
</svg>
